<svg width="27" height="32" viewBox="0 0 27 32" fill="none" xmlns="http://www.w3.org/2000/svg">
<path d="M8.70206 31.5335C3.9395 31.5064 0 21.9261 0 17.047C0 9.0771 6.06719 7.33227 8.40544 7.33227C9.45919 7.33227 10.5844 7.74006 11.5768 8.10091C12.2708 8.35262 12.9886 8.61247 13.3878 8.61247C13.6267 8.61247 14.1898 8.39143 14.6869 8.19748C15.7471 7.78157 17.0663 7.26465 18.6026 7.26465C18.6053 7.26465 18.609 7.26465 18.6117 7.26465C19.7588 7.26465 23.2369 7.51273 25.328 10.6072L25.8178 11.3326L25.1129 11.8568C24.1058 12.6056 22.2683 13.9715 22.2683 16.6772C22.2683 19.8817 24.3493 21.1141 25.3491 21.7069C25.7904 21.9685 26.2472 22.2383 26.2472 22.8283C26.2472 23.2135 23.1271 31.4857 18.5961 31.4857C17.4874 31.4857 16.7038 31.1573 16.0125 30.8677C15.3131 30.5744 14.7097 30.3219 13.7127 30.3219C13.2073 30.3219 12.5683 30.5573 11.8917 30.8073C10.9671 31.1473 9.92063 31.5335 8.73319 31.5335H8.70206Z" fill="#15063F"/>
<path d="M19.0826 0C19.2006 4.19269 16.1578 7.10139 13.1185 6.91896C12.6177 3.57305 16.1574 0 19.0826 0Z" fill="#15063F"/>
</svg>
