<svg width="47" height="49" viewBox="0 0 47 49" fill="none" xmlns="http://www.w3.org/2000/svg">
<path d="M19.1481 21.7375C24.91 21.7375 29.5926 16.8647 29.5926 10.8687C29.5926 4.87282 24.91 0 19.1481 0C13.3863 0 8.70367 4.87282 8.70367 10.8687C8.70367 16.8647 13.3863 21.7375 19.1481 21.7375ZM19.1481 3.62291C22.9952 3.62291 26.1111 6.86542 26.1111 10.8687C26.1111 14.8721 22.9952 18.1146 19.1481 18.1146C15.3011 18.1146 12.1852 14.8721 12.1852 10.8687C12.1852 6.86542 15.3011 3.62291 19.1481 3.62291Z" fill="#8468F1"/>
<path d="M19.1481 23.5488C9.31295 23.5488 0 30.5953 0 38.0404V47.0976C0 48.0939 0.783333 48.909 1.74074 48.909H36.5555C37.5129 48.909 38.2963 48.0939 38.2963 47.0976V38.0404C38.2963 30.5953 28.9833 23.5488 19.1481 23.5488ZM34.8148 45.2862H3.48148V38.0404C3.48148 32.6604 11.3844 27.1717 19.1481 27.1717C26.9118 27.1717 34.8148 32.6604 34.8148 38.0404V45.2862Z" fill="#8468F1"/>
<path d="M45.2593 12.6803H41.7778V9.05742C41.7778 8.06112 40.9945 7.24597 40.037 7.24597C39.0796 7.24597 38.2963 8.06112 38.2963 9.05742V12.6803H34.8148C33.8574 12.6803 33.0741 13.4955 33.0741 14.4917C33.0741 15.488 33.8574 16.3032 34.8148 16.3032H38.2963V19.9261C38.2963 20.9224 39.0796 21.7375 40.037 21.7375C40.9945 21.7375 41.7778 20.9224 41.7778 19.9261V16.3032H45.2593C46.2167 16.3032 47 15.488 47 14.4917C47 13.4955 46.2167 12.6803 45.2593 12.6803Z" fill="#8468F1"/>
</svg>
