<svg width="54" height="48" viewBox="0 0 54 48" fill="none" xmlns="http://www.w3.org/2000/svg">
<path d="M1.21762 18.0163L26.006 29.2408C26.271 29.3656 26.5564 29.4279 26.8418 29.4279C27.1272 29.4279 27.4126 29.3656 27.6776 29.2408L52.466 18.0163C53.1795 17.7046 53.6483 16.9978 53.6687 16.208C53.6891 15.4181 53.3018 14.6906 52.6291 14.2956L27.8203 0.265023C27.2087 -0.0883409 26.4545 -0.0883409 25.8429 0.265023L1.05454 14.2956C0.381831 14.6698 -0.0258729 15.4181 0.0148975 16.208C0.0556679 16.9978 0.504142 17.6838 1.21762 18.0163ZM26.8214 4.44303L47.0435 15.8962L26.8214 25.0628L6.59931 15.8962L26.8214 4.44303Z" fill="#15063F"/>
<path d="M1.19696 26.9336L25.9853 38.4283C26.2503 38.553 26.5357 38.6153 26.8211 38.6153C27.1065 38.6153 27.3919 38.553 27.6569 38.4283L52.4453 26.9336C53.4646 26.4555 53.913 25.2291 53.4646 24.1898C52.9957 23.1505 51.793 22.6725 50.7737 23.1505L26.8211 34.2503L2.88893 23.1505C1.84929 22.6725 0.646563 23.1297 0.198089 24.1898C-0.291155 25.2291 0.157319 26.4555 1.19696 26.9336Z" fill="#15063F"/>
<path d="M50.7533 32.3379L26.8211 43.4377L2.88894 32.3379C1.84929 31.8598 0.646568 32.3171 0.198094 33.3772C-0.270765 34.4165 0.177709 35.6637 1.21735 36.121L26.0057 47.6158C26.2707 47.7405 26.5561 47.8029 26.8415 47.8029C27.1269 47.8029 27.4123 47.7405 27.6773 47.6158L52.4657 36.121C53.4849 35.6429 53.9334 34.4165 53.4849 33.3772C52.9957 32.3379 51.793 31.8598 50.7533 32.3379Z" fill="#15063F"/>
</svg>
