<svg width="54" height="48" viewBox="0 0 54 48" fill="none" xmlns="http://www.w3.org/2000/svg">
<path d="M39.6083 31.5291C40.4786 31.5291 41.1842 30.8254 41.1842 29.9575C41.1842 29.0895 40.4786 28.3859 39.6083 28.3859C38.7379 28.3859 38.0323 29.0895 38.0323 29.9575C38.0323 30.8254 38.7379 31.5291 39.6083 31.5291Z" fill="#15063F"/>
<path d="M50.6399 22.37V14.242C50.6399 13.3741 49.9343 12.6704 49.064 12.6704H47.7957C47.3729 11.5121 44.0595 2.43433 43.5487 1.03449C43.2515 0.220014 42.3489 -0.200742 41.5316 0.0941854L24.0995 6.38425H4.72779C2.12089 6.38425 0 8.49924 0 11.0989V42.5299C0 45.1295 2.12089 47.2445 4.72779 47.2445H49.064C49.9343 47.2445 50.6399 46.5409 50.6399 45.673V37.5449C52.4742 36.8962 53.7917 35.1493 53.7917 33.1006V26.8144C53.7917 24.7656 52.4742 23.0188 50.6399 22.37ZM35.3421 5.67004C36.1421 6.98165 37.3109 8.02998 38.7377 8.69349C40.107 9.33017 41.6447 9.58298 43.2278 9.34474L44.4415 12.6703H15.9414L35.3421 5.67004ZM42.1122 6.2885C41.4153 6.29551 40.72 6.14737 40.0698 5.8449C39.4167 5.54128 38.8541 5.10281 38.4108 4.56283L41.1249 3.58344L42.1122 6.2885ZM4.72779 9.52735H15.3887L6.67795 12.6704H4.72779C3.85882 12.6704 3.15186 11.9655 3.15186 11.0989C3.15186 10.2323 3.85882 9.52735 4.72779 9.52735ZM4.72779 44.1014C3.85882 44.1014 3.15186 43.3964 3.15186 42.5299V15.5432C3.64513 15.7177 4.17537 15.8135 4.72779 15.8135H47.488V22.0997H39.6084C35.2635 22.0997 31.7287 25.6247 31.7287 29.9575C31.7287 34.2902 35.2635 37.8152 39.6084 37.8152H47.488V44.1014H4.72779ZM50.6399 33.1006C50.6399 33.9671 49.9329 34.6721 49.064 34.6721H39.6084C37.0015 34.6721 34.8806 32.5571 34.8806 29.9575C34.8806 27.3578 37.0015 25.2428 39.6084 25.2428H49.064C49.9329 25.2428 50.6399 25.9478 50.6399 26.8144V33.1006Z" fill="#15063F"/>
<path d="M20.7281 29.6093C19.8565 28.8203 18.6887 28.3858 17.4402 28.3858C16.6301 28.3858 15.8642 27.5201 15.8642 26.6044C15.8642 26.0151 16.2764 25.4603 16.9142 25.1908C17.3106 25.0234 18.3559 24.7526 19.4955 25.8537C20.1206 26.4576 21.1183 26.4418 21.7239 25.8186C22.3294 25.1953 22.3137 24.2003 21.6887 23.5964C20.8967 22.8313 19.9758 22.3144 19.0162 22.065V20.5283C19.0162 19.6604 18.3106 18.9568 17.4403 18.9568C16.5699 18.9568 15.8644 19.6604 15.8644 20.5283V22.2252C15.8044 22.2479 15.7446 22.2717 15.6851 22.2968C13.8792 23.0591 12.7124 24.7501 12.7124 26.6043C12.7124 29.2738 14.8774 31.5288 17.4402 31.5288C18.1992 31.5288 19.0161 31.9549 19.0161 32.8905C19.0161 33.5597 18.6115 34.1562 18.0094 34.3749C17.237 34.6553 16.3206 34.254 15.4951 33.2738C14.9353 32.6092 13.9412 32.5229 13.2747 33.0811C12.6083 33.6393 12.5217 34.6306 13.0815 35.2952C13.9085 36.2772 14.8643 36.9592 15.8641 37.3174V39.3865C15.8641 40.2545 16.5697 40.9581 17.4401 40.9581C18.3104 40.9581 19.016 40.2545 19.016 39.3865V37.3527C19.04 37.3444 19.0641 37.3369 19.0881 37.3282C20.9302 36.6592 22.168 34.8758 22.168 32.8905C22.168 31.6152 21.6566 30.4498 20.7281 29.6093Z" fill="#15063F"/>
</svg>
