<svg width="173" height="41" viewBox="0 0 173 41" fill="none" xmlns="http://www.w3.org/2000/svg">
<g clip-path="url(#clip0_71_2)">
<path fill-rule="evenodd" clip-rule="evenodd" d="M135.6 34.9C136.3 39.7 140.6 41.8 145.3 39.1L168.5 25.8C173.5 22.9 173.5 17.5 168.5 14.6L145.3 1.20001C140.7 -1.49999 136.3 0.600007 135.6 5.40001C136 5.50001 136.5 5.70001 136.9 5.90001L157.1 17.5C159.7 19 159.7 21.2 157.1 22.6L136.9 34.2C136.5 34.6 136.1 34.7 135.6 34.9Z" fill="#806CF4"/>
<path fill-rule="evenodd" clip-rule="evenodd" d="M157.7 23.7L137.5 35.3C137 35.6 136.4 35.8 135.9 36C136 36.4 136.2 36.8 136.3 37.2C136.9 37 137.5 36.8 138.1 36.4L158.3 24.8C162.5 22.4 162.5 17.9 158.3 15.5L138.1 3.8C137.5 3.4 136.9 3.2 136.3 3C136.1 3.4 136 3.7 135.9 4.2C136.4 4.3 137 4.6 137.5 4.9L157.7 16.5C161 18.4 161 21.8 157.7 23.7Z" fill="#806CF4"/>
<path fill-rule="evenodd" clip-rule="evenodd" d="M145.3 1.20001L166.9 16C170.5 18.4 170.5 21.9 166.9 24.3L145.3 39L168.5 25.7C171 24.2 172.3 22.2 172.3 20.1C172.3 18 171 15.9 168.5 14.5L145.3 1.20001Z" fill="#806CF4"/>
<path fill-rule="evenodd" clip-rule="evenodd" d="M152.4 13.5L137.5 5.00001C134.2 3.10001 131.3 4.70001 131.3 8.60001V11.2C131.4 15.4 133.4 17.7 137.7 16.6C139.8 16.1 141.6 15 143.4 14C146.2 12.6 149.5 12 152.4 13.5Z" fill="#FFBBC2"/>
<path fill-rule="evenodd" clip-rule="evenodd" d="M141.1 20.1C141.1 21.4 140 22.5 138.7 22.5C137.4 22.5 136.3 21.4 136.3 20.1C136.3 18.8 137.4 17.7 138.7 17.7C140 17.8 141.1 18.8 141.1 20.1Z" fill="#806CF4"/>
<path fill-rule="evenodd" clip-rule="evenodd" d="M138.7 16.3C140.8 16.3 142.5 18 142.5 20.1C142.5 22.2 140.8 23.9 138.7 23.9C138.6 23.9 138.4 23.9 138.3 23.9C140.2 24.5 141.7 25.5 143.4 26.3C146.2 27.7 149.5 28.3 152.5 26.8L157.8 23.7C159.5 22.7 160.3 21.4 160.3 20.1C160.3 18.8 159.5 17.5 157.8 16.5L152.5 13.4C149.6 11.9 146.3 12.5 143.4 13.9C141.7 14.7 140.2 15.7 138.3 16.3C138.4 16.4 138.6 16.3 138.7 16.3Z" fill="#FFA4B1"/>
<path fill-rule="evenodd" clip-rule="evenodd" d="M152.4 26.7L137.5 35.2C134.2 37.1 131.3 35.4 131.3 31.6V29C131.4 24.8 133.4 22.5 137.7 23.6C139.8 24.1 141.6 25.2 143.4 26.2C146.2 27.5 149.5 28.1 152.4 26.7Z" fill="#FFBBC2"/>
<path d="M20.7 28.8C20.7 29.2 20.5 29.5 20.2 29.8C19.9 30.1 19.5 30.2 19.2 30.2C18.9 30.2 18.7 30.1 18.5 30C18.3 29.8 18.1 29.6 18 29.3L16 24.8H4.79999L2.79999 29.3C2.69999 29.6 2.49999 29.8 2.29999 30C2.09999 30.2 1.79999 30.2 1.49999 30.2C1.09999 30.2 0.699994 30.1 0.399994 29.8C0.0999939 29.5 -0.100006 29.2 -0.100006 28.8C-0.100006 28.6 -6.10203e-06 28.4 0.0999939 28.2L8.69999 9.49999C8.79999 9.19999 8.99999 8.89999 9.39999 8.69999C9.79999 8.49999 9.99999 8.39999 10.4 8.39999C10.7 8.39999 11.1 8.49999 11.4 8.69999C11.7 8.89999 11.9 9.09999 12.1 9.49999L20.6 28.2C20.6 28.4 20.7 28.6 20.7 28.8ZM5.99999 22.2H14.9L10.5 12.2L5.99999 22.2Z" fill="#15063F"/>
<path d="M34.9 15.8C35.9 16.4 36.7 17.4 37.2 18.5C37.8 19.7 38 21 38 22.6C38 24.1 37.7 25.4 37.2 26.6C36.7 27.7 35.9 28.6 34.9 29.3C33.9 29.9 32.8 30.2 31.5 30.2C30.4 30.2 29.4 30 28.6 29.5C27.8 29 27.1 28.3 26.7 27.5V34.2C26.7 34.6 26.6 35 26.3 35.2C26 35.4 25.7 35.6 25.2 35.6C24.7 35.6 24.4 35.5 24.1 35.2C23.8 34.9 23.7 34.6 23.7 34.1V16.4C23.7 16 23.8 15.6 24.1 15.3C24.4 15 24.8 14.9 25.2 14.9C25.6 14.9 26 15 26.3 15.3C26.6 15.6 26.7 15.9 26.7 16.4V17.6C27.1 16.7 27.8 16 28.6 15.5C29.4 15 30.4 14.8 31.5 14.8C32.7 14.9 33.9 15.2 34.9 15.8ZM33.8 26.4C34.5 25.5 34.9 24.2 34.9 22.6C34.9 20.9 34.5 19.6 33.8 18.7C33.1 17.8 32 17.3 30.7 17.3C29.4 17.3 28.3 17.8 27.6 18.7C26.9 19.6 26.5 20.9 26.5 22.6C26.5 24.3 26.9 25.6 27.6 26.5C28.3 27.4 29.3 27.9 30.7 27.9C32.1 27.8 33.1 27.3 33.8 26.4Z" fill="#15063F"/>
<path d="M52.7 15.8C53.7 16.4 54.5 17.4 55 18.5C55.6 19.7 55.8 21 55.8 22.6C55.8 24.1 55.5 25.4 55 26.6C54.5 27.7 53.7 28.6 52.7 29.3C51.7 29.9 50.6 30.2 49.3 30.2C48.2 30.2 47.2 30 46.4 29.5C45.6 29 44.9 28.3 44.5 27.5V34.2C44.5 34.6 44.4 35 44.1 35.2C43.8 35.4 43.5 35.6 43 35.6C42.5 35.6 42.2 35.5 41.9 35.2C41.6 34.9 41.5 34.6 41.5 34.1V16.4C41.5 16 41.6 15.6 41.9 15.3C42.2 15 42.6 14.9 43 14.9C43.4 14.9 43.8 15 44.1 15.3C44.4 15.6 44.5 15.9 44.5 16.4V17.6C44.9 16.7 45.6 16 46.4 15.5C47.2 15 48.2 14.8 49.3 14.8C50.6 14.9 51.7 15.2 52.7 15.8ZM51.7 26.4C52.4 25.5 52.8 24.2 52.8 22.6C52.8 20.9 52.4 19.6 51.7 18.7C51 17.8 49.9 17.3 48.6 17.3C47.3 17.3 46.2 17.8 45.5 18.7C44.8 19.6 44.4 20.9 44.4 22.6C44.4 24.3 44.8 25.6 45.5 26.5C46.2 27.4 47.2 27.9 48.6 27.9C49.9 27.8 51 27.3 51.7 26.4Z" fill="#15063F"/>
<path d="M79.7 8.89999C80 9.19999 80.1 9.59999 80.1 9.99999V28.6C80.1 29.1 80 29.4 79.7 29.7C79.4 30 79.1 30.1 78.7 30.1C78.3 30.1 77.9 30 77.7 29.7C77.5 29.4 77.3 29.1 77.3 28.6V14.6L71.4 25.9C71 26.6 70.5 27 69.9 27C69.3 27 68.8 26.6 68.4 25.9L62.4 14.7V28.6C62.4 29.1 62.3 29.4 62 29.7C61.8 30 61.4 30.1 61 30.1C60.6 30.1 60.2 30 60 29.7C59.7 29.4 59.6 29.1 59.6 28.6V10.1C59.6 9.59999 59.7 9.29999 60 8.99999C60.3 8.69999 60.6 8.59999 61.1 8.59999C61.7 8.59999 62.2 8.99999 62.6 9.69999L69.8 23.5L77 9.69999C77.4 8.99999 77.9 8.59999 78.5 8.59999C79 8.49999 79.4 8.69999 79.7 8.89999Z" fill="#15063F"/>
<path d="M95.3 16.3C96.3 17.3 96.7 18.8 96.7 20.8V28.6C96.7 29.1 96.6 29.4 96.3 29.7C96 30 95.7 30.1 95.2 30.1C94.8 30.1 94.4 30 94.1 29.7C93.8 29.4 93.7 29.1 93.7 28.6V27.5C93.3 28.3 92.7 29 92 29.5C91.2 30 90.4 30.2 89.4 30.2C88.4 30.2 87.5 30 86.7 29.6C85.9 29.2 85.3 28.7 84.8 28C84.3 27.3 84.1 26.5 84.1 25.6C84.1 24.5 84.4 23.7 84.9 23.1C85.5 22.5 86.4 22 87.7 21.8C89 21.5 90.7 21.4 93 21.4H93.7V20.5C93.7 19.4 93.5 18.6 93 18.1C92.5 17.6 91.8 17.3 90.8 17.3C90.1 17.3 89.4 17.4 88.8 17.6C88.2 17.8 87.5 18 86.7 18.4C86.2 18.7 85.8 18.9 85.6 18.9C85.3 18.9 85.1 18.8 84.9 18.6C84.7 18.4 84.6 18.1 84.6 17.8C84.6 17.5 84.7 17.2 84.9 17C85.1 16.8 85.3 16.5 85.7 16.3C86.4 15.9 87.2 15.6 88.2 15.4C89.1 15.2 90.1 15.1 91 15.1C92.9 14.9 94.3 15.3 95.3 16.3ZM92.7 26.8C93.4 26 93.8 25.1 93.8 23.9V23.1H93.3C91.7 23.1 90.5 23.2 89.7 23.3C88.9 23.4 88.2 23.7 87.9 24C87.6 24.3 87.4 24.8 87.4 25.4C87.4 26.1 87.7 26.7 88.2 27.2C88.7 27.7 89.4 27.9 90.2 27.9C91.1 27.9 92 27.5 92.7 26.8Z" fill="#15063F"/>
<path d="M110.1 16.2C110.1 16.6 110 17 109.8 17.2C109.6 17.4 109.2 17.6 108.7 17.6L107.8 17.7C106.5 17.8 105.6 18.3 105 19C104.4 19.8 104.1 20.7 104.1 21.8V28.7C104.1 29.2 104 29.5 103.7 29.8C103.4 30 103.1 30.2 102.6 30.2C102.1 30.2 101.8 30.1 101.5 29.8C101.2 29.6 101.1 29.2 101.1 28.7V16.4C101.1 15.9 101.2 15.6 101.5 15.3C101.8 15 102.2 14.9 102.6 14.9C103 14.9 103.3 15 103.6 15.3C103.9 15.6 104 15.9 104 16.3V17.8C104.4 16.9 105 16.2 105.8 15.8C106.6 15.3 107.4 15.1 108.4 15H108.8C109.6 14.9 110.1 15.3 110.1 16.2Z" fill="#15063F"/>
<path d="M121.4 28.1C121.6 28.3 121.7 28.6 121.7 28.9C121.7 29.3 121.5 29.6 121.2 29.8C120.9 30 120.4 30.1 119.8 30.1L119 30C117.4 29.9 116.1 29.4 115.3 28.5C114.5 27.6 114.1 26.3 114.1 24.6V17.5H112.3C111.4 17.5 111 17.1 111 16.3C111 15.9 111.1 15.7 111.3 15.4C111.5 15.1 111.9 15.1 112.3 15.1H114.1V12C114.1 11.5 114.2 11.2 114.5 10.9C114.8 10.6 115.1 10.5 115.6 10.5C116.1 10.5 116.4 10.6 116.7 10.9C117 11.2 117.1 11.5 117.1 12V15.1H120.1C120.5 15.1 120.9 15.2 121.1 15.4C121.3 15.6 121.4 15.9 121.4 16.3C121.4 16.7 121.3 17 121.1 17.2C120.9 17.4 120.5 17.5 120.1 17.5H117.1V24.8C117.1 25.7 117.3 26.4 117.7 26.9C118.1 27.3 118.7 27.6 119.5 27.7L120.3 27.8C120.9 27.8 121.2 28 121.4 28.1Z" fill="#15063F"/>
</g>
<defs>
<clipPath id="clip0_71_2">
<rect width="172.3" height="40.2" fill="white"/>
</clipPath>
</defs>
</svg>
