<svg width="29" height="30" viewBox="0 0 29 30" fill="none" xmlns="http://www.w3.org/2000/svg">
<path d="M5.6097 0.475795C4.43602 -0.167528 3.05797 -0.152654 1.89178 0.485092L15.5598 12.989L20.1514 8.43553L5.6097 0.475795Z" fill="#917AEB"/>
<path d="M0.52497 1.76416C0.191239 2.30521 0 2.92435 0 3.58068V26.1636C0 26.7994 0.174365 27.4056 0.489347 27.9355L14.2342 14.305L0.52497 1.76416Z" fill="#917AEB"/>
<path d="M26.2392 11.7671L21.8594 9.37061L16.9378 14.2492L22.9693 19.7655L26.241 17.9751C27.4185 17.3281 28.1234 16.1679 28.1234 14.8702C28.1216 13.5724 27.4185 12.4123 26.2392 11.7671Z" fill="#917AEB"/>
<path d="M15.6123 15.5649L1.8299 29.2333C2.42799 29.5718 3.0842 29.7503 3.74416 29.7503C4.38163 29.7503 5.02284 29.5903 5.60969 29.2687L21.2407 20.7136L15.6123 15.5649Z" fill="#917AEB"/>
</svg>
