<svg width="259" height="29" viewBox="0 0 259 29" fill="none" xmlns="http://www.w3.org/2000/svg">
<path d="M32.9163 10.6472C32.8027 10.3354 32.5006 10.1081 32.1368 10.0611L21.9179 8.73694L17.3478 0.479995C17.1852 0.186062 16.8494 0 16.4819 0C16.1142 0 15.7786 0.186062 15.6159 0.479995L11.0455 8.73694L0.826847 10.0611C0.463154 10.1081 0.160882 10.3354 0.0473121 10.6471C-0.0663217 10.9589 0.0284482 11.3011 0.291705 11.5299L7.68583 17.957L5.94057 27.0324C5.87837 27.3555 6.02735 27.6819 6.32473 27.8746C6.49296 27.9836 6.69222 28.0391 6.89245 28.0391C7.04619 28.0391 7.20045 28.0064 7.34171 27.9401L16.4818 23.6553L25.6215 27.9401C25.947 28.0926 26.3412 28.0673 26.6385 27.8746C26.9359 27.6819 27.085 27.3554 27.0228 27.0323L25.277 17.957L32.672 11.5298C32.9351 11.3011 33.03 10.9589 32.9163 10.6472Z" fill="#FF9E0D"/>
<path d="M89.4254 10.6472C89.3118 10.3354 89.0097 10.1081 88.6459 10.0611L78.427 8.73694L73.8569 0.479995C73.6943 0.186062 73.3585 0 72.991 0C72.6233 0 72.2876 0.186062 72.125 0.479995L67.5546 8.73694L57.3359 10.0611C56.9722 10.1081 56.67 10.3354 56.5564 10.6471C56.4428 10.9589 56.5375 11.3011 56.8008 11.5299L64.1949 17.957L62.4497 27.0324C62.3875 27.3555 62.5364 27.6819 62.8338 27.8746C63.0021 27.9836 63.2013 28.0391 63.4015 28.0391C63.5553 28.0391 63.7095 28.0064 63.8508 27.9401L72.9909 23.6553L82.1306 27.9401C82.456 28.0926 82.8503 28.0673 83.1476 27.8746C83.445 27.6819 83.5941 27.3554 83.5319 27.0323L81.7861 17.957L89.181 11.5298C89.4442 11.3011 89.5391 10.9589 89.4254 10.6472Z" fill="#FF9E0D"/>
<path d="M145.934 10.6472C145.821 10.3354 145.519 10.1081 145.155 10.0611L134.936 8.73694L130.366 0.479995C130.203 0.186062 129.868 0 129.5 0C129.132 0 128.797 0.186062 128.634 0.479995L124.064 8.73694L113.845 10.0611C113.481 10.1081 113.179 10.3354 113.066 10.6471C112.952 10.9589 113.047 11.3011 113.31 11.5299L120.704 17.957L118.959 27.0324C118.897 27.3555 119.046 27.6819 119.343 27.8746C119.511 27.9836 119.71 28.0391 119.911 28.0391C120.064 28.0391 120.219 28.0064 120.36 27.9401L129.5 23.6553L138.64 27.9401C138.965 28.0926 139.359 28.0673 139.657 27.8746C139.954 27.6819 140.103 27.3554 140.041 27.0323L138.295 17.957L145.69 11.5298C145.953 11.3011 146.048 10.9589 145.934 10.6472Z" fill="#FF9E0D"/>
<path d="M202.444 10.6472C202.33 10.3354 202.028 10.1081 201.664 10.0611L191.445 8.73694L186.875 0.479995C186.712 0.186062 186.377 0 186.009 0C185.642 0 185.306 0.186062 185.143 0.479995L180.573 8.73694L170.354 10.0611C169.99 10.1081 169.688 10.3354 169.575 10.6471C169.461 10.9589 169.556 11.3011 169.819 11.5299L177.213 17.957L175.468 27.0324C175.406 27.3555 175.555 27.6819 175.852 27.8746C176.02 27.9836 176.22 28.0391 176.42 28.0391C176.573 28.0391 176.728 28.0064 176.869 27.9401L186.009 23.6553L195.149 27.9401C195.474 28.0926 195.868 28.0673 196.166 27.8746C196.463 27.6819 196.612 27.3554 196.55 27.0323L194.804 17.957L202.199 11.5298C202.462 11.3011 202.557 10.9589 202.444 10.6472Z" fill="#FF9E0D"/>
<path d="M258.953 10.6472C258.839 10.3354 258.537 10.1081 258.173 10.0611L247.954 8.73694L243.384 0.479995C243.222 0.186062 242.886 0 242.518 0C242.151 0 241.815 0.186062 241.652 0.479995L237.082 8.73694L226.863 10.0611C226.5 10.1081 226.197 10.3354 226.084 10.6471C225.97 10.9589 226.065 11.3011 226.328 11.5299L233.722 17.957L231.977 27.0324C231.915 27.3555 232.064 27.6819 232.361 27.8746C232.529 27.9836 232.729 28.0391 232.929 28.0391C233.083 28.0391 233.237 28.0064 233.378 27.9401L242.518 23.6553L251.658 27.9401C251.983 28.0926 252.378 28.0673 252.675 27.8746C252.972 27.6819 253.121 27.3554 253.059 27.0323L251.313 17.957L258.708 11.5298C258.972 11.3011 259.066 10.9589 258.953 10.6472Z" fill="#FF9E0D"/>
</svg>
